<svg width="128" height="128" viewBox="0 0 128 128" fill="none" xmlns="http://www.w3.org/2000/svg">
  <path d="M59 21C50.2 16.6 39.4 17.9 31.9 24.6C24.8 23.9 17.7 27 13.5 32.9C6.6 37.1 2.4 45 2.8 53.4C1.8 61.2 4.4 69.2 10.3 74.6C14.9 80.3 22.1 83.4 29.4 83H48.8C53.4 83 57.6 81 60.4 77.6C63.1 74.2 64.2 69.6 63.4 65.2C67.5 62 71.8 59 75.6 55.4C80.3 51.1 83.7 45.1 84 38.6C84.4 30.4 79.5 22.6 71.9 19.2C67.6 17.3 63 17.3 59 21Z" stroke="#050505" stroke-width="5.5" stroke-linecap="round" stroke-linejoin="round"/>
  <path d="M68 22C76.1 18.1 86 19.2 92.9 25.3C99.5 24.7 106.2 27.6 110.1 33.1C116.5 37 120.4 44.3 120 52.1C120.9 59.4 118.5 66.8 113 71.8C108.8 77 102.2 79.9 95.5 79.5H77.6C73.4 79.5 69.5 77.6 66.9 74.5C64.4 71.4 63.3 67.2 64 63.1C60.2 60.1 56.2 57.3 52.7 54C48.4 50 45.2 44.4 45 38.4C44.7 30.8 49.3 23.5 56.4 20.4C60.3 18.6 64.6 18.6 68 22Z" stroke="#050505" stroke-width="5.5" stroke-linecap="round" stroke-linejoin="round"/>
  <path d="M27 33C20.9 37 17.8 44.6 18.7 52.1C19.7 61.1 27.4 68.1 36.5 68.2" stroke="#050505" stroke-width="5.5" stroke-linecap="round"/>
  <path d="M104 36C110 39.8 113.3 47.1 112.5 54.2C111.6 62.8 104.7 69.4 96.1 69.5" stroke="#050505" stroke-width="5.5" stroke-linecap="round"/>
  <path d="M46 67C50 64.2 55.1 63.5 59.7 65" stroke="#050505" stroke-width="5.5" stroke-linecap="round"/>
  <path d="M69.5 48.5C72.5 46.4 76.5 46 79.9 47.4" stroke="#050505" stroke-width="5.5" stroke-linecap="round"/>
  <path d="M46.5 33.5C44.1 37.2 44.2 42.1 46.7 45.8" stroke="#050505" stroke-width="5.5" stroke-linecap="round"/>
  <path d="M77.8 30.6C80.4 32.4 81.4 35.9 80.2 38.8" stroke="#050505" stroke-width="5.5" stroke-linecap="round"/>
  <path d="M60 78C61.7 90.7 60.3 103.7 56 115.8" stroke="#050505" stroke-width="5.5" stroke-linecap="round"/>
  <path d="M90.2 97.6C94.6 95.5 100 96.4 103.5 99.9C103.8 105.3 100.8 110.6 95.9 113.2C91.4 111 88.2 106.3 88.2 101.3C88.2 100 88.3 98.8 88.7 97.6" stroke="#050505" stroke-width="5.5" stroke-linecap="round" stroke-linejoin="round"/>
  <path d="M90.9 97.1C89 102.3 89.1 108.1 91.1 113.2" stroke="#050505" stroke-width="5.5" stroke-linecap="round"/>
  <path d="M89.8 113.4H105.5" stroke="#050505" stroke-width="5.5" stroke-linecap="round"/>
  <path d="M31.5 42C35.1 39 37.5 34.6 38.1 29.9" stroke="#050505" stroke-width="5.5" stroke-linecap="round"/>
  <path d="M57.3 27.3C56.2 31.8 56.5 36.5 58.2 40.8" stroke="#050505" stroke-width="5.5" stroke-linecap="round"/>
</svg>